<svg width="64" height="61" viewBox="0 0 64 61" fill="none" xmlns="http://www.w3.org/2000/svg">
<path d="M25.6 0H38.4C40.0974 0 41.7252 0.674284 42.9255 1.87452C44.1257 3.07475 44.8 4.70261 44.8 6.4V12.8H57.6C59.2974 12.8 60.9252 13.4743 62.1255 14.6745C63.3257 15.8748 64 17.5026 64 19.2V54.4C64 56.0974 63.3257 57.7253 62.1255 58.9255C60.9252 60.1257 59.2974 60.8 57.6 60.8H6.4C4.70261 60.8 3.07475 60.1257 1.87452 58.9255C0.674284 57.7253 0 56.0974 0 54.4V19.2C0 15.648 2.848 12.8 6.4 12.8H19.2V6.4C19.2 2.848 22.048 0 25.6 0ZM38.4 12.8V6.4H25.6V12.8H38.4Z" fill="#4F46E5"/>
<path d="M16.177 52.224C14.2307 52.224 12.5313 51.8754 11.0788 51.1782C9.65538 50.452 8.43529 49.4498 7.41855 48.1716L11.9939 43.7706C12.5168 44.4968 13.1268 45.0487 13.824 45.4264C14.5502 45.804 15.3636 45.9929 16.2642 45.9929C17.1357 45.9929 17.891 45.8186 18.53 45.47C19.1691 45.0923 19.6775 44.5694 20.0551 43.9013C20.4328 43.2041 20.6216 42.3471 20.6216 41.3304V20.9811H27.5064V40.9382C27.5064 43.2331 27.0416 45.223 26.112 46.9079C25.1824 48.5928 23.8752 49.9 22.1903 50.8296C20.5054 51.7592 18.501 52.224 16.177 52.224Z" fill="white"/>
<path d="M38.0732 52.2676C35.7783 52.2676 33.6431 51.8609 31.6677 51.0475C29.6924 50.2341 27.9639 49.1012 26.4824 47.6487C25.0299 46.1962 23.8824 44.5113 23.04 42.594C22.2266 40.6477 21.8199 38.5561 21.8199 36.3193C21.8199 34.0534 22.2266 31.9619 23.04 30.0446C23.8534 28.1273 24.9863 26.457 26.4388 25.0335C27.9203 23.581 29.6343 22.4626 31.5806 21.6783C33.556 20.8649 35.6911 20.4582 37.986 20.4582C40.31 20.4582 42.4452 20.8649 44.3915 21.6783C46.3669 22.4626 48.0808 23.581 49.5333 25.0335C51.0148 26.457 52.1623 28.1418 52.9757 30.0882C53.789 32.0054 54.1957 34.097 54.1957 36.3629C54.1957 38.5997 53.789 40.6913 52.9757 42.6376C52.1623 44.5549 51.0148 46.2398 49.5333 47.6923C48.0808 49.1157 46.3814 50.2341 44.4351 51.0475C42.4887 51.8609 40.3681 52.2676 38.0732 52.2676ZM51.7991 54.1849L37.4196 39.8053L41.3849 35.84L55.7644 50.2196L51.7991 54.1849ZM37.986 46.0364C39.8452 46.0364 41.4575 45.6297 42.8228 44.8163C44.1881 44.003 45.2485 42.87 46.0037 41.4175C46.7881 39.936 47.1803 38.2366 47.1803 36.3193C47.1803 34.8668 46.9624 33.5596 46.5266 32.3976C46.0909 31.2066 45.4663 30.1898 44.6529 29.3474C43.8395 28.4759 42.8664 27.8223 41.7334 27.3866C40.6296 26.9218 39.3804 26.6894 37.986 26.6894C36.1559 26.6894 34.5582 27.0961 33.1928 27.9094C31.8275 28.6938 30.7527 29.8122 29.9683 31.2647C29.213 32.6881 28.8354 34.373 28.8354 36.3193C28.8354 37.7718 29.0533 39.0936 29.489 40.2846C29.9248 41.4756 30.5493 42.5069 31.3627 43.3784C32.1761 44.2208 33.1348 44.8744 34.2386 45.3392C35.3716 45.804 36.6207 46.0364 37.986 46.0364Z" fill="white"/>
<path d="M36.6633 35.4307L43.4871 35.1389L36.5893 42.2603L36.6633 35.4307Z" fill="white"/>
</svg>
